<svg width="111" height="102" viewBox="0 0 111 102" fill="none" xmlns="http://www.w3.org/2000/svg"><g clip-path="url(#clip0_141_23013)"><path opacity="0.3" d="M25.9788 101.665C24.5634 101.572 23.5254 100.445 23.5254 99.1308C23.5254 97.7227 24.6577 96.5962 26.1675 96.5962H82.3124C83.7278 96.5962 84.9545 97.7227 84.9545 99.1308C84.9545 100.539 83.8222 101.665 82.5011 101.665H25.9788Z" fill="#AFAFAF"/><path d="M81.4636 84.3922C82.5015 86.5513 81.6523 89.1798 79.482 90.2124L73.4429 93.2164C71.2726 94.249 68.7248 93.4041 67.6868 91.245C66.6489 89.0859 67.4981 86.4574 69.6684 85.4248L75.7075 82.4209C77.8778 81.3883 80.4256 82.2331 81.4636 84.3922Z" fill="#F49000"/><path d="M53.2487 92.2775C53.2487 94.7182 51.3614 96.5956 48.9081 96.5956H42.1141C39.755 96.5956 37.7734 94.6243 37.7734 92.2775C37.7734 89.8367 39.6607 87.9593 42.1141 87.9593H48.9081C51.2671 87.8654 53.2487 89.8367 53.2487 92.2775Z" fill="#F49000"/><path d="M7.57994 26.3778C20.8849 21.3086 29.1886 17.5537 32.4913 15.113C34.3785 13.7049 35.6996 11.4519 36.4545 8.35406C38.0586 2.34615 44.1921 -1.31492 50.1368 0.374801C52.5902 1.03192 54.6662 2.44002 56.1759 4.50524L76.4636 31.7286C87.5038 46.4668 84.5786 67.4945 69.9527 78.6654C55.3267 89.8364 34.5672 86.8325 23.527 72.0943L2.48444 43.9322C-1.19565 38.9569 -0.252034 31.8225 4.65475 28.0675C5.59836 27.2227 6.54197 26.7533 7.57994 26.3778Z" fill="#58CC02"/><path d="M64.5717 61.5812L71.2713 56.5121C71.6488 56.2304 72.1206 56.4182 72.3093 56.7937C72.9698 58.765 72.2149 61.018 70.4221 62.3322C68.6292 63.6465 66.2702 63.7403 64.5717 62.6138C64.2886 62.4261 64.2886 61.8629 64.5717 61.5812Z" fill="#89E219"/><path d="M36.1705 24.9706C40.3223 25.7216 43.7193 22.5299 44.0968 18.9627C44.663 13.518 48.7205 17.9301 56.4581 32.2927L45.4178 40.7414C36.4535 29.6643 33.434 24.5012 36.1705 24.9706Z" fill="#89E219"/><path d="M24.3751 28.1624L25.0356 27.6931C30.5086 23.4687 38.3406 24.5952 42.4924 30.1338L47.0218 36.1417C51.1737 41.6802 50.0413 49.5656 44.5684 53.7899L43.9079 54.2593C38.4349 58.4836 30.6029 57.3571 26.4511 51.8186L21.9217 45.8107C17.8642 40.1783 18.9022 32.2929 24.3751 28.1624Z" fill="#89E219"/><path d="M23.2423 22.6233L37.8683 25.3456C38.6232 25.5334 39.0006 26.3782 38.6232 27.0354C36.8303 30.4148 32.9615 32.1984 29.1871 31.4474C25.4126 30.6964 22.4874 27.5986 22.0156 23.7498C22.0156 22.9988 22.4874 22.4356 23.2423 22.6233Z" fill="#89E219"/><path d="M20.8834 27.6926L35.3206 30.5088C36.0755 30.6965 36.453 31.5414 36.0755 32.1985C34.2827 35.578 30.4139 37.3616 26.6394 36.6106C22.865 35.8596 19.9398 32.7618 19.468 28.9129C19.3736 28.2558 20.0341 27.5987 20.8834 27.6926Z" fill="#89E219"/><path d="M45.5101 6.10179C45.6045 5.44468 46.1706 5.16306 46.9255 5.44468C50.4169 6.75891 52.5872 9.66899 52.3041 12.8607C52.021 16.0524 49.2845 18.587 45.6988 19.2441C44.9439 19.338 44.189 18.8686 44.2834 18.2115L45.5101 6.10179Z" fill="#89E219"/><path d="M51.0785 6.19554C51.1728 5.53843 51.739 5.25681 52.4939 5.53843C55.9852 6.85266 58.1556 9.76274 57.8725 12.9544C57.5894 16.1462 54.8529 18.6807 51.2672 19.3379C50.5123 19.4317 49.7574 18.9624 49.8518 18.3052L51.0785 6.19554Z" fill="#89E219"/><path d="M61.0819 10.8894L70.4236 23.3746C72.7826 27.5989 71.7447 33.0436 67.7815 36.0475C63.4409 39.3331 57.3074 38.4882 54.0991 34.0762L46.3615 23.7501C43.1532 19.4319 44.0025 13.2362 48.2487 9.95064C52.2119 6.94668 57.6849 7.41605 61.0819 10.8894Z" fill="#89E219"/><path d="M27.6784 31.1663C31.7359 28.0685 37.3975 28.9133 40.4171 32.9499L43.8141 37.5497C46.8337 41.5863 46.0788 47.4064 42.0212 50.5043C37.9637 53.6021 32.302 52.7572 29.2825 48.7207L25.8855 44.1209C22.7716 39.9904 23.6208 34.2641 27.6784 31.1663Z" fill="white"/><path d="M31.0767 35.3905C32.9639 33.9824 35.606 34.3579 37.1158 36.2354L40.041 40.1781C41.4564 42.0555 41.079 44.7779 39.1918 46.2798C37.3045 47.688 34.6624 47.3125 33.1526 45.435L30.2274 41.4923C28.812 39.5209 29.1895 36.7986 31.0767 35.3905Z" fill="#4B4B4B"/><path d="M31.452 41.9617C30.2253 42.9004 28.4324 42.6188 27.5832 41.3984C26.6395 40.1781 26.9226 38.3945 28.1493 37.4557C29.376 36.517 31.1689 36.7986 32.0181 38.019C32.9617 39.2393 32.6787 41.0229 31.452 41.9617Z" fill="white"/><path d="M50.0424 14.4567C53.2507 12.016 57.8744 12.6731 60.2334 15.8648L65.7063 23.1869C68.1597 26.4725 67.4992 31.0723 64.2909 33.5131C61.0826 35.9538 56.4589 35.2967 54.0999 32.1049L48.627 24.7828C46.1736 21.4972 46.8341 16.8974 50.0424 14.4567Z" fill="white"/><path d="M53.0629 18.5872C54.667 17.3668 56.8373 17.7423 58.064 19.3382L61.9328 24.5012C63.0652 26.0971 62.7821 28.3501 61.2723 29.4766C59.6682 30.6969 57.4979 30.3214 56.2712 28.7256L52.4024 23.5625C51.1757 21.9667 51.5531 19.7137 53.0629 18.5872Z" fill="#4B4B4B"/><path d="M53.7235 25.346C52.4968 26.2847 50.7039 26.0031 49.8546 24.7827C48.911 23.5624 49.1941 21.7788 50.4208 20.84C51.6475 19.9013 53.4404 20.1829 54.2896 21.4033C55.1389 22.6236 54.9501 24.4072 53.7235 25.346Z" fill="white"/><path d="M31.6413 54.4469L28.5273 50.5981C28.9048 50.2226 38.8127 42.5249 49.0981 44.684L48.7206 46.5615C48.1545 49.0961 46.0785 50.9736 43.5308 51.3491C39.7563 51.8184 36.265 53.7898 34.3777 54.9163C33.4341 55.3856 32.3018 55.1979 31.6413 54.4469Z" fill="#8EE000"/><path d="M46.8304 36.7987C41.6406 32.7621 38.621 26.4726 38.9985 19.7137C39.7534 8.6366 49.7556 0.281843 61.3621 1.12671C67.3068 1.5022 72.4967 4.22454 75.988 8.35498C80.0456 4.88165 85.6129 2.91031 91.4633 3.2858C103.07 4.13066 111.845 13.7997 110.996 24.8767C110.524 31.1663 107.127 36.611 102.126 39.8965L78.5358 58.0141C75.2331 60.5487 70.6095 60.2671 67.6843 57.357L46.8304 36.7987Z" fill="#FF4B4B"/><path d="M58.5316 29.8518C53.9079 29.5702 50.4166 25.4398 50.6997 20.8399C50.9827 16.2401 55.0403 12.6729 59.664 12.9546C64.2877 13.2362 67.779 17.3666 67.496 21.9664C67.2129 26.5662 63.1553 30.1334 58.5316 29.8518Z" fill="#FFB8B8"/><path d="M63.7227 31.6353C65.893 30.0394 68.9125 31.072 69.7618 33.6066C73.725 45.9041 69.3843 59.7035 58.7215 67.495C48.0587 75.2865 33.8102 75.2865 23.4305 67.6828C21.2602 66.0869 21.2602 62.8013 23.4305 61.2994L63.7227 31.6353Z" fill="#58CC02"/><path d="M93.6355 30.8844L101.467 37.2678C103.166 38.676 103.355 41.1167 101.939 42.8064L96.8438 48.8143C95.4284 50.504 92.8806 50.6918 91.2765 49.2837L89.1062 47.5001C86.0866 44.9655 85.3317 40.7412 87.4077 37.3617L90.9934 31.4477C91.5596 30.6028 92.6919 30.3212 93.5411 30.7906C93.4468 30.7906 93.5411 30.7906 93.6355 30.8844Z" fill="#58CC02"/></g><defs><clipPath id="clip0_141_23013"><rect width="110.78" height="101.665" fill="white" transform="translate(0.21875)"/></clipPath></defs></svg>